<svg width="18" height="18" viewBox="0 0 18 18" fill="none" xmlns="http://www.w3.org/2000/svg">
<path d="M15.5953 12.3708C15.2051 11.6986 14.625 9.79664 14.625 7.3125C14.625 5.82066 14.0323 4.38992 12.9775 3.33502C11.9226 2.28013 10.4918 1.6875 8.99998 1.6875C7.50814 1.6875 6.0774 2.28013 5.0225 3.33502C3.96761 4.38992 3.37498 5.82066 3.37498 7.3125C3.37498 9.79734 2.7942 11.6986 2.40396 12.3708C2.30431 12.5417 2.25148 12.7358 2.2508 12.9336C2.25012 13.1315 2.30162 13.326 2.40009 13.4975C2.49857 13.6691 2.64055 13.8117 2.81171 13.9109C2.98287 14.0101 3.17716 14.0624 3.37498 14.0625H6.24443C6.37421 14.6975 6.71934 15.2683 7.22145 15.6781C7.72356 16.088 8.35182 16.3119 8.99998 16.3119C9.64814 16.3119 10.2764 16.088 10.7785 15.6781C11.2806 15.2683 11.6257 14.6975 11.7555 14.0625H14.625C14.8227 14.0622 15.0169 14.0098 15.188 13.9106C15.3591 13.8114 15.5009 13.6688 15.5993 13.4972C15.6977 13.3257 15.7492 13.1312 15.7485 12.9335C15.7477 12.7357 15.6949 12.5416 15.5953 12.3708ZM8.99998 15.1875C8.6511 15.1874 8.31083 15.0792 8.02601 14.8777C7.74118 14.6762 7.5258 14.3914 7.40951 14.0625H10.5904C10.4742 14.3914 10.2588 14.6762 9.97395 14.8777C9.68912 15.0792 9.34886 15.1874 8.99998 15.1875Z" fill="#FF6A00"/>
</svg>
