<svg width="16" height="16" viewBox="0 0 16 16" fill="none" xmlns="http://www.w3.org/2000/svg">
<path d="M5.77395 2.37823C5.74922 2.28281 5.74355 2.18346 5.75725 2.08585C5.77095 1.98824 5.80376 1.89429 5.85379 1.80937C5.90383 1.72445 5.97011 1.65022 6.04886 1.59093C6.1276 1.53165 6.21726 1.48846 6.3127 1.46385C7.41955 1.17806 8.58085 1.17806 9.6877 1.46385C9.7852 1.48643 9.87721 1.52829 9.95828 1.58697C10.0394 1.64566 10.1079 1.71997 10.1598 1.80554C10.2117 1.89112 10.2459 1.98621 10.2605 2.08523C10.2751 2.18425 10.2697 2.28518 10.2447 2.38208C10.2197 2.47899 10.1755 2.5699 10.1148 2.64947C10.0541 2.72904 9.97805 2.79565 9.8912 2.84538C9.80434 2.89512 9.70841 2.92696 9.60906 2.93904C9.50971 2.95112 9.40894 2.94319 9.3127 2.91573C8.45178 2.69375 7.54862 2.69375 6.6877 2.91573C6.49526 2.96551 6.29092 2.93687 6.11959 2.83608C5.94825 2.7353 5.82393 2.57062 5.77395 2.37823ZM3.18395 3.27135C2.38329 4.08709 1.80268 5.09262 1.49645 6.19385C1.47015 6.28881 1.46282 6.38803 1.47488 6.48583C1.48693 6.58362 1.51815 6.67808 1.56673 6.76381C1.61531 6.84954 1.68031 6.92486 1.75801 6.98546C1.83571 7.04605 1.92459 7.09075 2.01957 7.11698C2.08476 7.13476 2.15201 7.14379 2.21957 7.14385C2.38357 7.14378 2.54303 7.08995 2.67352 6.99062C2.80401 6.89128 2.89834 6.75191 2.94207 6.59385C3.18024 5.73768 3.63184 4.95598 4.25457 4.32198C4.32356 4.25168 4.37802 4.16848 4.41485 4.07713C4.45169 3.98579 4.47017 3.88808 4.46924 3.78959C4.46831 3.69111 4.44799 3.59376 4.40944 3.50313C4.37089 3.41249 4.31487 3.33034 4.24457 3.26135C4.17428 3.19237 4.09108 3.1379 3.99973 3.10107C3.90839 3.06424 3.81068 3.04576 3.71219 3.04669C3.6137 3.04762 3.51636 3.06794 3.42573 3.10648C3.33509 3.14503 3.25293 3.20105 3.18395 3.27135ZM2.94145 9.4051C2.88503 9.21718 2.75721 9.05885 2.58541 8.96407C2.41361 8.86929 2.21151 8.8456 2.02245 8.8981C1.8334 8.9506 1.67244 9.0751 1.57411 9.24489C1.47577 9.41468 1.4479 9.61624 1.49645 9.80635C1.80223 10.9081 2.38289 11.9142 3.18395 12.7301C3.32592 12.8591 3.51193 12.9289 3.70373 12.9249C3.89554 12.921 4.07854 12.8437 4.21512 12.709C4.35169 12.5743 4.43144 12.3923 4.43796 12.2006C4.44449 12.0089 4.37729 11.8219 4.2502 11.6782C3.62865 11.0435 3.17834 10.2613 2.94145 9.4051ZM9.3127 13.0845C8.45182 13.3068 7.54858 13.3068 6.6877 13.0845C6.59146 13.057 6.49069 13.0491 6.39134 13.0612C6.29198 13.0732 6.19605 13.1051 6.1092 13.1548C6.02234 13.2046 5.94632 13.2712 5.88561 13.3507C5.8249 13.4303 5.78073 13.5212 5.7557 13.6181C5.73067 13.715 5.72529 13.816 5.73987 13.915C5.75446 14.014 5.78871 14.1091 5.84062 14.1947C5.89253 14.2802 5.96104 14.3545 6.04212 14.4132C6.12319 14.4719 6.21519 14.5138 6.3127 14.5364C7.41955 14.8221 8.58085 14.8221 9.6877 14.5364C9.7852 14.5138 9.87721 14.4719 9.95828 14.4132C10.0394 14.3545 10.1079 14.2802 10.1598 14.1947C10.2117 14.1091 10.2459 14.014 10.2605 13.915C10.2751 13.816 10.2697 13.715 10.2447 13.6181C10.2197 13.5212 10.1755 13.4303 10.1148 13.3507C10.0541 13.2712 9.97805 13.2046 9.8912 13.1548C9.80434 13.1051 9.70841 13.0732 9.60906 13.0612C9.50971 13.0491 9.40894 13.057 9.3127 13.0845ZM13.9827 8.88323C13.7913 8.83105 13.5871 8.8568 13.4147 8.95484C13.2423 9.05288 13.1157 9.21523 13.0627 9.40635C12.8245 10.2625 12.3729 11.0442 11.7502 11.6782C11.6108 11.8201 11.5335 12.0116 11.5352 12.2105C11.537 12.4094 11.6177 12.5994 11.7596 12.7389C11.9015 12.8783 12.0929 12.9556 12.2918 12.9538C12.4907 12.9521 12.6808 12.8714 12.8202 12.7295C13.6207 11.9134 14.2013 10.9077 14.5077 9.80635C14.534 9.71122 14.5412 9.61185 14.529 9.51393C14.5167 9.416 14.4853 9.32145 14.4365 9.23569C14.3877 9.14994 14.3224 9.07466 14.2444 9.01418C14.1664 8.95369 14.0773 8.90919 13.9821 8.88323H13.9827ZM13.0596 6.5951C13.116 6.78303 13.2438 6.94136 13.4156 7.03614C13.5874 7.13092 13.7895 7.1546 13.9786 7.1021C14.1676 7.0496 14.3286 6.92511 14.4269 6.75532C14.5252 6.58553 14.5531 6.38396 14.5046 6.19385C14.1988 5.09207 13.6181 4.08603 12.8171 3.2701C12.7494 3.19439 12.667 3.13322 12.5749 3.09029C12.4829 3.04737 12.3831 3.02359 12.2816 3.0204C12.1801 3.01721 12.0789 3.03467 11.9844 3.07172C11.8898 3.10877 11.8038 3.16465 11.7314 3.23596C11.6591 3.30727 11.602 3.39252 11.5636 3.48656C11.5252 3.58059 11.5063 3.68144 11.5081 3.78299C11.5099 3.88454 11.5322 3.98468 11.5738 4.07733C11.6155 4.16998 11.6755 4.25321 11.7502 4.32198C12.3718 4.95675 12.8221 5.73887 13.0589 6.5951H13.0596Z" fill="black"/>
</svg>
