<svg width="16" height="16" viewBox="0 0 16 16" fill="none" xmlns="http://www.w3.org/2000/svg">
<path d="M14.8712 6.70045C14.8573 6.63004 14.8284 6.56345 14.7864 6.50522C14.7445 6.44698 14.6905 6.39846 14.6281 6.36295L12.7637 5.30045L12.7562 3.1992C12.756 3.12683 12.7401 3.05538 12.7096 2.98977C12.679 2.92416 12.6346 2.86597 12.5794 2.8192C11.9031 2.24714 11.1243 1.80874 10.2844 1.52733C10.2182 1.50494 10.1481 1.49665 10.0786 1.503C10.0091 1.50935 9.94161 1.5302 9.88062 1.5642L8 2.61545L6.1175 1.56233C6.05647 1.52813 5.98894 1.50713 5.91929 1.50067C5.84963 1.49421 5.7794 1.50244 5.71312 1.52483C4.87373 1.80805 4.09577 2.24814 3.42062 2.8217C3.36548 2.8684 3.32111 2.92649 3.29057 2.99199C3.26004 3.05748 3.24406 3.12881 3.24375 3.20108L3.23437 5.3042L1.37 6.3667C1.30762 6.40221 1.25362 6.45073 1.21167 6.50897C1.16972 6.5672 1.1408 6.63379 1.12687 6.7042C0.956245 7.56163 0.956245 8.44427 1.12687 9.3017C1.1408 9.37211 1.16972 9.43869 1.21167 9.49693C1.25362 9.55517 1.30762 9.60369 1.37 9.6392L3.23437 10.7017L3.24187 12.8036C3.2421 12.8759 3.25803 12.9474 3.28857 13.013C3.31911 13.0786 3.36352 13.1368 3.41875 13.1836C4.09504 13.7556 4.87384 14.194 5.71375 14.4754C5.77989 14.4978 5.84999 14.5061 5.91953 14.4998C5.98907 14.4934 6.0565 14.4726 6.1175 14.4386L8 13.3842L9.8825 14.4373C9.957 14.4788 10.041 14.5004 10.1262 14.4998C10.1809 14.4998 10.2351 14.4909 10.2869 14.4736C11.1261 14.1905 11.904 13.7508 12.5794 13.1779C12.6345 13.1313 12.6789 13.0732 12.7094 13.0077C12.74 12.9422 12.7559 12.8708 12.7562 12.7986L12.7656 10.6954L14.63 9.63295C14.6924 9.59744 14.7464 9.54892 14.7883 9.49068C14.8303 9.43245 14.8592 9.36586 14.8731 9.29545C15.0428 8.43871 15.0422 7.55695 14.8712 6.70045ZM8 10.4998C7.50554 10.4998 7.02219 10.3532 6.61107 10.0785C6.19995 9.8038 5.87952 9.41335 5.6903 8.95653C5.50108 8.49972 5.45157 7.99705 5.54803 7.5121C5.6445 7.02715 5.8826 6.58169 6.23223 6.23206C6.58186 5.88243 7.02732 5.64432 7.51227 5.54786C7.99722 5.4514 8.49989 5.50091 8.95671 5.69013C9.41352 5.87935 9.80397 6.19978 10.0787 6.6109C10.3534 7.02202 10.5 7.50537 10.5 7.99983C10.5 8.66287 10.2366 9.29875 9.76776 9.76759C9.29892 10.2364 8.66304 10.4998 8 10.4998Z" fill="#6B7280"/>
</svg>
