<svg width="16" height="16" viewBox="0 0 16 16" fill="none" xmlns="http://www.w3.org/2000/svg">
<path d="M1.5 7.99991C1.50132 6.80684 1.97585 5.66301 2.81948 4.81939C3.6631 3.97576 4.80693 3.50123 6 3.49991H12V2.49991C11.9999 2.40096 12.0292 2.30421 12.0841 2.22191C12.1391 2.13962 12.2172 2.07547 12.3086 2.03759C12.4 1.99972 12.5006 1.98982 12.5976 2.00914C12.6947 2.02847 12.7838 2.07615 12.8537 2.14616L14.3537 3.64616C14.4002 3.69259 14.4371 3.74774 14.4623 3.80844C14.4874 3.86913 14.5004 3.9342 14.5004 3.99991C14.5004 4.06561 14.4874 4.13068 14.4623 4.19138C14.4371 4.25207 14.4002 4.30722 14.3537 4.35366L12.8537 5.85366C12.7838 5.92366 12.6947 5.97135 12.5976 5.99067C12.5006 6.01 12.4 6.00009 12.3086 5.96222C12.2172 5.92434 12.1391 5.86019 12.0841 5.7779C12.0292 5.6956 11.9999 5.59885 12 5.49991V4.49991H6C5.07204 4.5009 4.18238 4.86997 3.52622 5.52613C2.87006 6.18229 2.50099 7.07195 2.5 7.99991C2.5 8.13251 2.44732 8.25969 2.35355 8.35346C2.25978 8.44723 2.1326 8.49991 2 8.49991C1.86739 8.49991 1.74021 8.44723 1.64644 8.35346C1.55267 8.25969 1.5 8.13251 1.5 7.99991ZM14 7.49991C13.8674 7.49991 13.7402 7.55258 13.6464 7.64635C13.5527 7.74012 13.5 7.8673 13.5 7.99991C13.499 8.92786 13.1299 9.81752 12.4738 10.4737C11.8176 11.1298 10.9279 11.4989 10 11.4999H4V10.4999C4.00007 10.401 3.97079 10.3042 3.91586 10.2219C3.86092 10.1396 3.7828 10.0755 3.69139 10.0376C3.59998 9.99972 3.49939 9.98982 3.40234 10.0091C3.3053 10.0285 3.21617 10.0762 3.14625 10.1462L1.64625 11.6462C1.59976 11.6926 1.56288 11.7477 1.53772 11.8084C1.51255 11.8691 1.4996 11.9342 1.4996 11.9999C1.4996 12.0656 1.51255 12.1307 1.53772 12.1914C1.56288 12.2521 1.59976 12.3072 1.64625 12.3537L3.14625 13.8537C3.21617 13.9237 3.3053 13.9713 3.40234 13.9907C3.49939 14.01 3.59998 14.0001 3.69139 13.9622C3.7828 13.9243 3.86092 13.8602 3.91586 13.7779C3.97079 13.6956 4.00007 13.5989 4 13.4999V12.4999H10C11.1931 12.4986 12.3369 12.0241 13.1805 11.1804C14.0241 10.3368 14.4987 9.19297 14.5 7.99991C14.5 7.8673 14.4473 7.74012 14.3535 7.64635C14.2598 7.55258 14.1326 7.49991 14 7.49991Z" fill="black"/>
</svg>
